/vscmnt/brussel_pixiu_data/_data_brussel/112/vsc11236/PredSimResults/SUBJ09mtu3D/worker1.mot
version=1
nRows=8
nColumns=50
inDegrees=yes
endheader
                time	         pelvis_tilt	         pelvis_list	     pelvis_rotation	           pelvis_tx	           pelvis_ty	           pelvis_tz	       hip_flexion_r	     hip_adduction_r	      hip_rotation_r	        knee_angle_r	       ankle_angle_r	         mtp_angle_r	       hip_flexion_l	     hip_adduction_l	      hip_rotation_l	        knee_angle_l	       ankle_angle_l	         mtp_angle_l	    lumbar_extension	      lumbar_bending	     lumbar_rotation	 ercspn_r/activation	 intobl_r/activation	 extobl_r/activation	    abd_r/activation	    add_r/activation	hamstrings_r/activation	bifemsh_r/activation	glut_max_r/activation	iliopsoas_r/activation	rect_fem_r/activation	  vasti_r/activation	gastroc_r/activation	 soleus_r/activation	tib_ant_r/activation	 ercspn_l/activation	 intobl_l/activation	 extobl_l/activation	    abd_l/activation	    add_l/activation	hamstrings_l/activation	bifemsh_l/activation	glut_max_l/activation	iliopsoas_l/activation	rect_fem_l/activation	  vasti_l/activation	gastroc_l/activation	 soleus_l/activation	tib_ant_l/activation	
          1.81390755	         -3.21086885	          1.34713572	         -4.99706008	          2.24924537	          0.99011912	         -0.00108636	        -14.28950796	         -2.19972508	          2.69657079	        -10.38224286	          8.30806735	         31.32434101	         28.03532920	          0.24024200	         -0.87173240	         -6.36558233	          7.58182725	          0.23884268	        -13.67497116	          1.37219895	         -1.26055673	          0.01000001	          0.01000001	          0.01000001	          0.02504380	          0.02973656	          0.01156608	          0.17298228	          0.01734682	          0.32031943	          0.01000002	          0.01000000	          0.31498969	          0.24627847	          0.00999999	          0.01190554	          0.26577625	          0.08236972	          0.00999999	          0.08308675	          0.01000001	          0.16914444	          0.08905112	          0.09461002	          0.03471937	          0.01000000	          0.02452679	          0.01123830	          0.23155752	
          1.82600027	         -3.19961627	          1.42337740	         -5.03252344	          2.26824239	          0.98800901	         -0.00118677	        -14.70916827	         -2.33577797	          2.39828711	        -11.63778298	          7.47742818	         33.10753106	         27.68729716	          0.44324170	         -0.76635176	         -7.69312727	          7.15937062	          0.20183029	        -13.26689692	          0.88045772	         -1.22733209	          0.01000001	          0.01000000	          0.01446376	          0.02084300	          0.03120844	          0.01471732	          0.14396652	          0.01443709	          0.29357782	          0.01000000	          0.01000000	          0.29016741	          0.22510345	          0.00999999	          0.01000000	          0.24540986	          0.06855315	          0.06050410	          0.06914992	          0.01000007	          0.14077243	          0.12630217	          0.07874029	          0.02889560	          0.00999999	          0.02041270	          0.01201546	          0.27047219	
          1.83809299	         -3.17275374	          1.50674896	         -5.03905247	          2.28730004	          0.98629496	         -0.00129734	        -14.87117636	         -2.46570486	          2.07750231	        -13.36823178	          6.49043312	         34.90860811	         27.26939483	          0.64941642	         -0.65700075	         -8.91152712	          6.58908848	          0.20104241	        -12.86638098	          0.36633894	         -1.19090905	          0.02251290	          0.01000000	          0.01203764	          0.01734683	          0.02907528	          0.01224867	          0.11981781	          0.01201544	          0.29843446	          0.01000000	          0.01000000	          0.25312304	          0.18873104	          0.00999999	          0.01000002	          0.20424520	          0.05705416	          0.12436266	          0.07244016	          0.02684467	          0.11715950	          0.14985877	          0.06553252	          0.02404870	          0.00999999	          0.01698871	          0.01000001	          0.30894751	
          1.85018571	         -3.13293946	          1.59077912	         -5.01549031	          2.30609108	          0.98520043	         -0.00141579	        -14.67922779	         -2.58103651	          1.74954876	        -15.69547192	          5.33162717	         36.59061695	         26.91580100	          0.86476159	         -0.54595571	        -10.20882699	          5.91440137	          0.17262942	        -12.50961395	         -0.16265862	         -1.15437870	          0.04723318	          0.01000000	          0.01001847	          0.01443710	          0.05465863	          0.01019411	          0.09971978	          0.01000000	          0.27908249	          0.01000000	          0.00999999	          0.21066459	          0.15707360	          0.00999999	          0.01000021	          0.16998544	          0.04748398	          0.15558781	          0.09557325	          0.02234182	          0.09750735	          0.16237483	          0.05454020	          0.02001481	          0.06198141	          0.01413905	          0.01000000	          0.34070189	
          1.86227842	         -3.08103369	          1.66688182	         -4.96022501	          2.32449668	          0.98480661	         -0.00151961	        -14.08420841	         -2.67237279	          1.42263600	        -18.68621895	          4.03872816	         37.85933269	         26.59569616	          1.08002684	         -0.43743561	        -11.58407879	          5.45845557	          0.13984487	        -12.20686396	         -0.69705929	         -1.12217918	          0.06683087	          0.01000000	          0.01000002	          0.01201544	          0.08089629	          0.01000003	          0.08299308	          0.00999999	          0.23226965	          0.00999999	          0.00999999	          0.17532805	          0.13072633	          0.00999999	          0.01000003	          0.14147236	          0.03951910	          0.17674679	          0.10336746	          0.01999803	          0.08115163	          0.16080290	          0.04539171	          0.01665756	          0.13504861	          0.01176740	          0.01000002	          0.35422880	
          1.87437114	         -3.01988331	          1.72556538	         -4.86819655	          2.34246670	          0.98516758	         -0.00157665	        -13.07040412	         -2.73139435	          1.09922833	        -22.35397943	          2.70883481	         38.23142614	         26.19146416	          1.28168464	         -0.33165946	        -12.82333386	          5.23389598	          0.10937876	        -11.95932178	         -1.22714026	         -1.09995585	          0.06003945	          0.00999999	          0.04790282	          0.00999999	          0.10405954	          0.01000000	          0.07863938	          0.00999999	          0.19330911	          0.00999999	          0.00999999	          0.14591880	          0.10879850	          0.00999999	          0.01201531	          0.11774201	          0.03289023	          0.17596583	          0.10071803	          0.01870648	          0.06753939	          0.13766374	          0.03777778	          0.01386345	          0.20531403	          0.01000004	          0.01000011	          0.35585363	
          1.88646386	         -2.95350468	          1.76028112	         -4.73012461	          2.35991760	          0.98632416	         -0.00157267	        -11.63956382	         -2.75067214	          0.81021001	        -26.63560042	          1.23938240	         37.57995686	         25.63078526	          1.46371587	         -0.20948631	        -13.77871491	          5.21725696	          0.08722909	        -11.77545981	         -1.74484035	         -1.09148443	          0.04996853	          0.01000015	          0.08608441	          0.00999999	          0.12072902	          0.01443712	          0.06544858	          0.00999999	          0.16088375	          0.00999999	          0.00999999	          0.12144262	          0.09054882	          0.02271980	          0.01000000	          0.09799216	          0.02737327	          0.16188921	          0.09221377	          0.02772745	          0.05621044	          0.11457224	          0.03144100	          0.01153802	          0.23589121	          0.01000055	          0.01000039	          0.34203707	
          1.89855657	         -2.88571857	          1.76811370	         -4.54765325	          2.37679472	          0.98818478	         -0.00149694	         -9.83762284	         -2.72374591	          0.59628060	        -31.38425702	         -0.37302347	         35.72139155	         24.91040891	          1.62026223	         -0.05622588	        -14.42198781	          5.34792433	          0.07650071	        -11.65958018	         -2.24442841	         -1.09056637	          0.06882339	          0.07853303	          0.10989358	          0.00999999	          0.10047813	          0.01201546	          0.05447055	          0.00999999	          0.13389737	          0.00999999	          0.00999999	          0.10107203	          0.07536030	          0.07140064	          0.01000002	          0.08155511	          0.02278172	          0.16001795	          0.07674598	          0.02307650	          0.04678180	          0.09535408	          0.02616713	          0.01000000	          0.24319243	          0.01000002	          0.01000004	          0.32360365	
